<svg width="46" height="46" viewBox="0 0 46 46" fill="none" xmlns="http://www.w3.org/2000/svg">
<path fill-rule="evenodd" clip-rule="evenodd" d="M20.7124 1.12302C22.1259 0.292327 23.874 0.292327 25.2874 1.12302L40.5375 10.0499C41.9509 10.8806 42.8312 12.418 42.8312 14.0669V31.933C42.8312 33.5944 41.9633 35.1318 40.5375 35.9501L25.2874 44.877C23.874 45.7077 22.1259 45.7077 20.7124 44.877L5.46241 35.9625C4.04899 35.1318 3.1687 33.5944 3.1687 31.9454V14.0793C3.1687 12.418 4.03659 10.8806 5.46241 10.0623L20.7124 1.12302Z" fill="#773DBD"/>
<path d="M18.1223 20.4025C18.0852 20.5141 18.0728 20.6257 18.0728 20.7373V25.2007C18.0728 25.6223 18.2959 26.0066 18.6431 26.205L22.4494 28.4367C22.6354 28.5483 22.8337 28.5979 23.0445 28.5855V23.2666L18.1223 20.3901V20.4025Z" fill="black"/>
<path d="M18.6431 29.6892C18.4943 29.6025 18.3703 29.4785 18.2835 29.3545C18.1471 29.5405 18.0728 29.776 18.0728 30.024V39.1244C18.0728 39.546 18.2959 39.9303 18.6431 40.1287L22.4494 42.3604C22.6354 42.472 22.8337 42.5216 23.0445 42.5092V32.0697C22.8461 32.0697 22.6354 32.0201 22.4494 31.921L18.6431 29.6892Z" fill="black"/>
<path d="M23.0452 28.5981C23.2312 28.5981 23.4296 28.5485 23.6032 28.4493L27.4095 26.2176C27.769 26.0068 27.9798 25.6225 27.9798 25.2133V20.7499C27.9798 20.6383 27.9674 20.5391 27.9302 20.4399L23.0328 23.2916V28.6105L23.0452 28.5981Z" fill="#DCDBDB"/>
<path d="M23.6022 42.3726L27.4085 40.1409C27.7681 39.9301 27.9789 39.5458 27.9789 39.1366V30.0362C27.9789 29.7882 27.9045 29.5527 27.7681 29.3667C27.6689 29.5031 27.5449 29.6147 27.4085 29.7015L23.6022 31.9332C23.4287 32.0324 23.2427 32.0819 23.0443 32.0819V42.5214C23.2303 42.5214 23.4287 42.4718 23.6022 42.3726Z" fill="#DCDBDB"/>
<path d="M27.942 20.4151C27.8676 20.13 27.6816 19.882 27.4088 19.7208L23.6025 17.4891C23.429 17.3899 23.243 17.3403 23.0446 17.3403C22.8462 17.3403 22.6355 17.3899 22.4495 17.4891L18.6432 19.7208C18.3828 19.8696 18.1968 20.1176 18.1224 20.4027L23.0446 23.2792L27.942 20.4275V20.4151Z" fill="#E2E2E2"/>
</svg>
